<mxfile host="65bd71144e">
    <diagram id="wM44vbqehjzpvzb4OBrd" name="Page-1">
        <mxGraphModel dx="414" dy="598" grid="1" gridSize="10" guides="1" tooltips="1" connect="1" arrows="1" fold="1" page="1" pageScale="1" pageWidth="827" pageHeight="1169" math="0" shadow="0">
            <root>
                <mxCell id="0"/>
                <mxCell id="1" parent="0"/>
                <mxCell id="2" value="quantas faces" style="rounded=0;whiteSpace=wrap;html=1;" vertex="1" parent="1">
                    <mxGeometry x="170" y="120" width="160" height="70" as="geometry"/>
                </mxCell>
                <mxCell id="9" value="quantidade" style="rounded=0;whiteSpace=wrap;html=1;" vertex="1" parent="1">
                    <mxGeometry x="170" y="260" width="170" height="60" as="geometry"/>
                </mxCell>
                <mxCell id="10" value="gera&lt;br&gt;random&lt;br&gt;num faces" style="rounded=0;whiteSpace=wrap;html=1;" vertex="1" parent="1">
                    <mxGeometry x="440" y="120" width="160" height="70" as="geometry"/>
                </mxCell>
            </root>
        </mxGraphModel>
    </diagram>
</mxfile>